<svg xmlns="http://www.w3.org/2000/svg" width="46" height="46" viewBox="0 0 46 46">
  <g id="グループ_30" data-name="グループ 30" transform="translate(-736 -1219)">
    <rect id="長方形_7" data-name="長方形 7" width="46" height="46" rx="23" transform="translate(736 1219)" fill="#151d64"/>
    <path id="パス_10" data-name="パス 10" d="M19.05,17.08a1.231,1.231,0,0,1,.075,1.75,1.214,1.214,0,0,1-.925.4,1.252,1.252,0,0,1-.85-.325c-5.55-5.075-11.524-.25-11.774-.05a1.242,1.242,0,1,1-1.6-1.9C6.7,14.68,13.3,11.805,19.05,17.08Zm-7.45,6.95a2.323,2.323,0,0,0-1.675.7,2.375,2.375,0,0,0,1.675,4.05,2.323,2.323,0,0,0,1.675-.7,2.375,2.375,0,0,0-1.675-4.05Zm11-10.349C16.676,8.505,10.951,8.78,7.176,9.93a18.157,18.157,0,0,0-6.75,3.75,1.23,1.23,0,0,0-.05,1.75,1.26,1.26,0,0,0,1.775.05A16.112,16.112,0,0,1,7.926,12.3c4.6-1.4,8.974-.3,13.049,3.25a1.243,1.243,0,0,0,.825.3,1.291,1.291,0,0,0,.95-.425,1.26,1.26,0,0,0-.15-1.75ZM7.4,20.5a1.245,1.245,0,0,0,1.55,1.95c.1-.075,2.75-2.125,5-.025a1.272,1.272,0,0,0,1.775-.075,1.209,1.209,0,0,0-.075-1.75c-3.025-2.8-6.725-1.275-8.25-.1Z" transform="translate(747.965 1223.76)" fill="#fff"/>
  </g>
</svg>
