<svg xmlns="http://www.w3.org/2000/svg" width="46" height="46" viewBox="0 0 46 46">
  <g id="グループ_31" data-name="グループ 31" transform="translate(-737 -1454)">
    <rect id="長方形_11" data-name="長方形 11" width="46" height="46" rx="23" transform="translate(737 1454)" fill="#151d64"/>
    <g id="グループ_7" data-name="グループ 7" transform="translate(746.485 1463.912)">
      <path id="パス_6" data-name="パス 6" d="M22.533,4.252A19.647,19.647,0,0,0,19.168,4.1a45.991,45.991,0,0,0-5.874.743,43.327,43.327,0,0,1-5.789.727A17.46,17.46,0,0,1,4.565,5.43a2.279,2.279,0,0,0-1.862.5A2.085,2.085,0,0,0,2,7.533V15.7a2.856,2.856,0,0,0,2.332,2.78,16.868,16.868,0,0,0,3.42.137,46.4,46.4,0,0,0,5.819-.729,43.241,43.241,0,0,1,5.8-.727c1.578-.24,3.464.7,4.792-.356a2.083,2.083,0,0,0,.7-1.606V7.032A2.856,2.856,0,0,0,22.533,4.252Zm.7,10.946a.466.466,0,0,1-.141.372.847.847,0,0,1-.674.1c-.336-.047-.676-.085-1.024-.11-.112-.008-.223-.009-.335-.015-.247-.014-.492-.03-.747-.034a3.656,3.656,0,0,1,1.343-1.639,2.678,2.678,0,0,1,1.578-.433Zm-2.462-2.7a5.432,5.432,0,0,0-2.2,3.068,51.142,51.142,0,0,0-5.27.708,50.461,50.461,0,0,1-5.029.687,6.87,6.87,0,0,0-4.633-4.3V10.917c.041,0,.082.008.123.008A4.3,4.3,0,0,0,6.1,10.23,5.43,5.43,0,0,0,8.3,7.163a51.237,51.237,0,0,0,5.271-.709A50.611,50.611,0,0,1,18.6,5.767a6.868,6.868,0,0,0,4.633,4.3v1.741A4.293,4.293,0,0,0,20.769,12.5ZM3.633,7.533c-.021-.478.454-.546.83-.472.328.045.661.083,1,.108.149.011.3.013.446.02.214.01.423.026.643.029A3.652,3.652,0,0,1,5.212,8.857a2.613,2.613,0,0,1-1.579.433Zm19.6.811a5.3,5.3,0,0,1-2.924-2.628,16.28,16.28,0,0,1,1.991.152,1.261,1.261,0,0,1,.932,1.163Zm-19.6,6.042a5.292,5.292,0,0,1,2.923,2.628,16.264,16.264,0,0,1-1.991-.151A1.261,1.261,0,0,1,3.633,15.7Z" transform="translate(0 0)" fill="#fff"/>
      <path id="パス_7" data-name="パス 7" d="M13.657,8.5a4.324,4.324,0,0,0-3.533,4.122,3.272,3.272,0,0,0,1.134,2.527,3.147,3.147,0,0,0,2.049.732,3.674,3.674,0,0,0,.634-.056,4.325,4.325,0,0,0,3.533-4.122A3.271,3.271,0,0,0,16.34,9.179,3.226,3.226,0,0,0,13.657,8.5Zm-1.349,5.4a1.622,1.622,0,0,1-.551-1.276,2.687,2.687,0,0,1,2.183-2.513,1.545,1.545,0,0,1,1.9,1.594,2.688,2.688,0,0,1-2.183,2.513A1.628,1.628,0,0,1,12.308,13.9ZM22.9,18.933a29.5,29.5,0,0,0-9.238.592,27.745,27.745,0,0,1-8.727.586A.817.817,0,0,0,4.7,21.728a29.466,29.466,0,0,0,9.239-.593,27.793,27.793,0,0,1,8.726-.586.817.817,0,0,0,.236-1.616Zm0,2.45a29.5,29.5,0,0,0-9.238.592,27.745,27.745,0,0,1-8.727.586A.817.817,0,1,0,4.7,24.178a29.466,29.466,0,0,0,9.239-.592A27.829,27.829,0,0,1,22.663,23a.817.817,0,0,0,.236-1.616Z" transform="translate(-0.367 -0.799)" fill="#fff"/>
    </g>
  </g>
</svg>
