<svg xmlns="http://www.w3.org/2000/svg" width="46" height="46" viewBox="0 0 46 46">
  <g id="グループ_32" data-name="グループ 32" transform="translate(-125 -1454)">
    <rect id="長方形_9" data-name="長方形 9" width="46" height="46" rx="23" transform="translate(125 1454)" fill="#151d64"/>
    <path id="パス_11" data-name="パス 11" d="M19.826.834a2.869,2.869,0,0,0-4.044,0L11.738,4.878,3.12,3.657a.779.779,0,0,0-.661.221L.247,6.09A.781.781,0,0,0,.51,7.367L6.866,9.905,3.691,13.65l-2.4.42a.781.781,0,0,0-.418,1.321L5.3,19.814A.781.781,0,0,0,6.616,19.4l.42-2.4,3.742-3.173,2.514,6.352a.78.78,0,0,0,1.277.265l2.212-2.212A.781.781,0,0,0,17,17.565l-1.22-8.616L19.85,4.906l.01-.01A2.873,2.873,0,0,0,19.826.834ZM18.744,3.8,14.4,8.118a.782.782,0,0,0-.222.663L15.4,17.4l-1.1,1.1-2.477-6.259a.78.78,0,0,0-1.231-.308L5.811,15.987a.78.78,0,0,0-.264.461l-.21,1.2-2.3-2.3,1.2-.21a.781.781,0,0,0,.461-.264l4.059-4.788a.781.781,0,0,0-.306-1.23l-6.264-2.5,1.1-1.1L11.9,6.478a.78.78,0,0,0,.661-.221l4.32-4.32a1.308,1.308,0,0,1,1.837,0A1.324,1.324,0,0,1,18.744,3.8Z" transform="translate(137.982 1467)" fill="#fff"/>
  </g>
</svg>
