<svg xmlns="http://www.w3.org/2000/svg" width="46" height="46" viewBox="0 0 46 46">
  <g id="グループ_29" data-name="グループ 29" transform="translate(-125 -1219)">
    <rect id="長方形_5" data-name="長方形 5" width="46" height="46" rx="23" transform="translate(125 1219)" fill="#151d64"/>
    <g id="グループ_6" data-name="グループ 6" transform="translate(135.308 1228.635)">
      <path id="パス_2" data-name="パス 2" d="M17.669,3.4A5.2,5.2,0,0,0,14.281,2H8.673A4.687,4.687,0,0,0,4,6.673V20.692a4.687,4.687,0,0,0,4.673,4.673h9.346a4.687,4.687,0,0,0,4.673-4.673V10.645a5.021,5.021,0,0,0-1.285-3.271L17.669,3.4Zm2.687,17.29a2.343,2.343,0,0,1-2.337,2.337H8.673a2.343,2.343,0,0,1-2.337-2.337V6.673A2.343,2.343,0,0,1,8.673,4.337h5.608a2.121,2.121,0,0,1,1.636.7L19.655,9.01a2.307,2.307,0,0,1,.7,1.636Z" fill="#fff"/>
      <path id="パス_3" data-name="パス 3" d="M9.168,5A1.1,1.1,0,0,0,8,6.168V7.337A1.1,1.1,0,0,0,9.168,8.5a1.1,1.1,0,0,0,1.168-1.168V6.168A1.1,1.1,0,0,0,9.168,5Zm4.673,0a1.1,1.1,0,0,0-1.168,1.168V7.337a1.168,1.168,0,0,0,2.337,0V6.168A1.1,1.1,0,0,0,13.841,5Z" transform="translate(0.673 0.505)" fill="#fff"/>
    </g>
  </g>
</svg>
