<svg xmlns="http://www.w3.org/2000/svg" width="18.795" height="18.797" viewBox="0 0 18.795 18.797">
  <path id="パス_5" data-name="パス 5" d="M18.033.758a2.609,2.609,0,0,0-3.678,0L10.677,4.436,2.84,3.326a.708.708,0,0,0-.6.2L.226,5.539A.71.71,0,0,0,.465,6.7L6.246,9.009,3.359,12.415,1.174,12.8A.71.71,0,0,0,.795,14l4.023,4.023a.71.71,0,0,0,1.2-.38L6.4,15.457l3.4-2.886,2.286,5.777a.709.709,0,0,0,1.162.241l2.012-2.012a.71.71,0,0,0,.2-.6L14.356,8.14l3.7-3.678.009-.009A2.613,2.613,0,0,0,18.033.758Zm-.984,2.7L13.1,7.383a.711.711,0,0,0-.2.6l1.11,7.838-1,1L10.76,11.128a.709.709,0,0,0-1.119-.28L5.287,14.54a.709.709,0,0,0-.24.419l-.191,1.092L2.765,13.96l1.092-.191a.711.711,0,0,0,.419-.24L7.967,9.174a.71.71,0,0,0-.278-1.118l-5.7-2.275,1-1,7.837,1.11a.71.71,0,0,0,.6-.2l3.929-3.929a1.19,1.19,0,0,1,1.67,0,1.2,1.2,0,0,1,.02,1.7Z" transform="translate(-0.018)" fill="#151d64"/>
</svg>
