<svg xmlns="http://www.w3.org/2000/svg" width="19.772" height="16.797" viewBox="0 0 19.772 16.797">
  <path id="パス_4" data-name="パス 4" d="M16.382,15.98a1.059,1.059,0,0,1,.064,1.5,1.043,1.043,0,0,1-.8.344,1.077,1.077,0,0,1-.731-.279c-4.771-4.363-9.907-.215-10.122-.043a1.068,1.068,0,1,1-1.375-1.633c2.342-1.956,8.016-4.427,12.959.107Zm-6.4,5.974a2,2,0,0,0-1.44.6,2.042,2.042,0,0,0,1.44,3.481,2,2,0,0,0,1.44-.6,2.042,2.042,0,0,0-1.44-3.481Zm9.456-8.9C14.34,8.608,9.419,8.845,6.174,9.833a15.609,15.609,0,0,0-5.8,3.224,1.058,1.058,0,0,0-.043,1.5,1.084,1.084,0,0,0,1.526.043,13.851,13.851,0,0,1,4.964-2.729c3.954-1.2,7.715-.258,11.218,2.794a1.068,1.068,0,0,0,.709.258,1.11,1.11,0,0,0,.817-.365,1.083,1.083,0,0,0-.129-1.5ZM6.367,18.924A1.071,1.071,0,0,0,7.7,20.6c.086-.064,2.364-1.827,4.3-.021a1.093,1.093,0,0,0,1.526-.064,1.039,1.039,0,0,0-.064-1.5c-2.6-2.407-5.781-1.1-7.092-.086Z" transform="translate(-0.035 -9.24)" fill="#151d64"/>
</svg>
