<svg xmlns="http://www.w3.org/2000/svg" width="16" height="20" viewBox="0 0 16 20">
  <g id="グループ_2" data-name="グループ 2" transform="translate(-4 -2)">
    <path id="パス_2" data-name="パス 2" d="M15.7,3.2A4.454,4.454,0,0,0,12.8,2H8A4.012,4.012,0,0,0,4,6V18a4.012,4.012,0,0,0,4,4h8a4.012,4.012,0,0,0,4-4V9.4a4.3,4.3,0,0,0-1.1-2.8L15.7,3.2ZM18,18a2.006,2.006,0,0,1-2,2H8a2.006,2.006,0,0,1-2-2V6A2.006,2.006,0,0,1,8,4h4.8a1.816,1.816,0,0,1,1.4.6L17.4,8A1.974,1.974,0,0,1,18,9.4Z" fill="#151d64"/>
    <path id="パス_3" data-name="パス 3" d="M9,5A.945.945,0,0,0,8,6V7A.945.945,0,0,0,9,8a.945.945,0,0,0,1-1V6A.945.945,0,0,0,9,5Zm4,0a.945.945,0,0,0-1,1V7a1,1,0,0,0,2,0V6A.945.945,0,0,0,13,5Z" fill="#151d64"/>
  </g>
</svg>
