<svg xmlns="http://www.w3.org/2000/svg" width="19.025" height="19.025" viewBox="0 0 19.025 19.025">
  <g id="Layer_2" transform="translate(-1.538 -1.538)">
    <g id="グループ_34" data-name="グループ 34" transform="translate(1.538 1.538)">
      <path id="パス_32" data-name="パス 32" d="M8.985,19.854a3.36,3.36,0,0,0,4.13,0,38.435,38.435,0,0,0,6.738-6.738,3.361,3.361,0,0,0,0-4.13,38.435,38.435,0,0,0-6.738-6.738,3.359,3.359,0,0,0-4.131,0A38.445,38.445,0,0,0,2.248,8.985a3.361,3.361,0,0,0,0,4.13A38.435,38.435,0,0,0,8.985,19.854ZM3.683,10.1A36.624,36.624,0,0,1,10.1,3.683h0a1.543,1.543,0,0,1,1.9,0A36.629,36.629,0,0,1,18.419,10.1a1.544,1.544,0,0,1,0,1.9A36.63,36.63,0,0,1,12,18.419a1.543,1.543,0,0,1-1.9,0A36.629,36.629,0,0,1,3.683,12,1.544,1.544,0,0,1,3.683,10.1Z" transform="translate(-1.538 -1.538)" fill="#1d2172"/>
      <path id="パス_33" data-name="パス 33" d="M9.909,16.093a.909.909,0,0,0,.909-.909V11.964a1.329,1.329,0,0,1,1.327-1.327h1.019l-.267.273a.909.909,0,1,0,1.3,1.272l1.781-1.819a.909.909,0,0,0,0-1.272L14.2,7.273a.909.909,0,0,0-1.3,1.272l.267.273H12.146A3.149,3.149,0,0,0,9,11.964v3.219A.909.909,0,0,0,9.909,16.093Z" transform="translate(-2.215 -2.034)" fill="#1d2172"/>
    </g>
  </g>
</svg>
