<svg xmlns="http://www.w3.org/2000/svg" width="15.928" height="19.025" viewBox="0 0 15.928 19.025">
  <g id="グループ_39" data-name="グループ 39" transform="translate(-4.28 -2)">
    <path id="パス_34" data-name="パス 34" d="M8.56,4.161v-.8H19.785V16.872H8.56V15.087a.679.679,0,0,0-.679-.679h0a.679.679,0,0,0-.679.679v4.58A1.361,1.361,0,0,0,8.56,21.025h11.9a.679.679,0,0,0,.679-.679V2.679A.679.679,0,0,0,20.465,2H8.56A1.361,1.361,0,0,0,7.2,3.359v.8a.679.679,0,0,0,.679.679h0A.679.679,0,0,0,8.56,4.161Zm0,15.506V18.231H19.785v1.435Z" transform="translate(-0.936)" fill="#151d64"/>
    <path id="パス_35" data-name="パス 35" d="M6.945,14.18l1.9,1.9a3.069,3.069,0,0,0,1.365.792l2,.547A1.078,1.078,0,0,0,13.542,16.1L13,14.1a3.074,3.074,0,0,0-.792-1.364L8.328,8.855a2.4,2.4,0,0,0-3.354,0,2.374,2.374,0,0,0,0,3.354ZM5.934,9.816a1.014,1.014,0,0,1,1.433,0l3.876,3.876a1.717,1.717,0,0,1,.441.761l.417,1.53-1.529-.417h0a1.711,1.711,0,0,1-.76-.441L5.934,11.248A1.014,1.014,0,0,1,5.934,9.816Z" transform="translate(0 -1.978)" fill="#151d64"/>
  </g>
</svg>
