<svg xmlns="http://www.w3.org/2000/svg" width="19.699" height="16.769" viewBox="0 0 19.699 16.769">
  <g id="グループ_3" data-name="グループ 3" transform="translate(-2 -4.088)">
    <path id="パス_6" data-name="パス 6" d="M19.69,4.229a16.927,16.927,0,0,0-2.9-.13,39.625,39.625,0,0,0-5.061.64,37.33,37.33,0,0,1-4.987.626A15.043,15.043,0,0,1,4.21,5.244a1.963,1.963,0,0,0-1.6.428A1.8,1.8,0,0,0,2,7.056v7.035a2.461,2.461,0,0,0,2.009,2.4,14.533,14.533,0,0,0,2.947.118,39.981,39.981,0,0,0,5.013-.628,37.255,37.255,0,0,1,5-.626c1.359-.207,2.985.6,4.129-.307a1.8,1.8,0,0,0,.607-1.383V6.624A2.461,2.461,0,0,0,19.69,4.229Zm.6,9.431a.4.4,0,0,1-.122.32.73.73,0,0,1-.58.088c-.289-.04-.582-.073-.882-.1-.1-.007-.192-.008-.289-.013-.213-.012-.424-.026-.644-.029a3.15,3.15,0,0,1,1.157-1.412,2.307,2.307,0,0,1,1.36-.373Zm-2.122-2.324a4.68,4.68,0,0,0-1.9,2.644,44.063,44.063,0,0,0-4.54.61,43.475,43.475,0,0,1-4.333.592,5.919,5.919,0,0,0-3.991-3.708v-1.5c.035,0,.071.007.106.007a3.706,3.706,0,0,0,2.017-.6,4.678,4.678,0,0,0,1.9-2.643,44.144,44.144,0,0,0,4.541-.611A43.6,43.6,0,0,1,16.3,5.534a5.917,5.917,0,0,0,3.991,3.708v1.5A3.7,3.7,0,0,0,18.171,11.336ZM3.407,7.056c-.018-.412.391-.47.715-.407.283.039.569.071.863.093.128.009.256.011.385.017.184.009.365.022.554.025A3.146,3.146,0,0,1,4.767,8.2a2.252,2.252,0,0,1-1.36.373Zm16.885.7a4.562,4.562,0,0,1-2.519-2.264,14.026,14.026,0,0,1,1.716.131,1.086,1.086,0,0,1,.8,1ZM3.407,12.961a4.56,4.56,0,0,1,2.518,2.264,14.012,14.012,0,0,1-1.715-.13,1.086,1.086,0,0,1-.8-1Z" fill="#151d64"/>
    <path id="パス_7" data-name="パス 7" d="M12.32,8.495a3.726,3.726,0,0,0-3.044,3.551,2.819,2.819,0,0,0,.977,2.177,2.711,2.711,0,0,0,1.765.631,3.165,3.165,0,0,0,.546-.048,3.726,3.726,0,0,0,3.044-3.551,2.819,2.819,0,0,0-.977-2.177A2.779,2.779,0,0,0,12.32,8.495Zm-1.162,4.65a1.4,1.4,0,0,1-.474-1.1A2.315,2.315,0,0,1,12.564,9.88,1.331,1.331,0,0,1,14.2,11.254a2.316,2.316,0,0,1-1.881,2.165A1.4,1.4,0,0,1,11.158,13.145Zm9.125,4.337a25.418,25.418,0,0,0-7.959.51,23.9,23.9,0,0,1-7.519.5.7.7,0,0,0-.2,1.393,25.387,25.387,0,0,0,7.96-.51,23.946,23.946,0,0,1,7.518-.5.7.7,0,0,0,.2-1.393Zm0,2.111a25.418,25.418,0,0,0-7.959.51,23.9,23.9,0,0,1-7.519.5A.7.7,0,1,0,4.6,22a25.387,25.387,0,0,0,7.96-.51,23.977,23.977,0,0,1,7.518-.5.7.7,0,0,0,.2-1.393Z" transform="translate(-0.593 -1.292)" fill="#151d64"/>
  </g>
</svg>
