<svg xmlns="http://www.w3.org/2000/svg" xmlns:xlink="http://www.w3.org/1999/xlink" width="66" height="66" viewBox="0 0 66 66">
  <defs>
    <clipPath id="clip-path">
      <rect id="長方形_18" data-name="長方形 18" width="38.676" height="25.774" fill="#f4e297"/>
    </clipPath>
  </defs>
  <g id="グループ_37" data-name="グループ 37" transform="translate(-723 -2007)">
    <rect id="長方形_17" data-name="長方形 17" width="66" height="66" rx="32" transform="translate(723 2007)" fill="#394469"/>
    <g id="グループ_14" data-name="グループ 14" transform="translate(737 2028.113)">
      <g id="グループ_13" data-name="グループ 13" transform="translate(0 0)" clip-path="url(#clip-path)">
        <path id="パス_21" data-name="パス 21" d="M27.942,25.774h-.96l-23.4-.024c-1.646,0-3.369-1.3-3.382-2.921L.07,7.356C.059,5.977-.06,4.75.037,3.36A3.538,3.538,0,0,1,3.417,0L35.39.014a3.37,3.37,0,0,1,3.268,3.061l.018,19.463a3.5,3.5,0,0,1-3.224,3.22Zm7.735-1.192c.664-.023,1.857-1.017,1.858-1.767l.024-19.993c-1.112-2-2.387-1.841-4.094-1.77-1.819.075-3.632.089-5.455,0a14.462,14.462,0,0,0-3.1.035A14.654,14.654,0,0,1,22.638.976L3.7.991c-1.054,0-2.533,1-2.533,2.1L1.157,22.675a2.468,2.468,0,0,0,2.085,1.955l20.368.055a6.431,6.431,0,0,0,1.611.028,4.461,4.461,0,0,1,.818.074c1.786.019,3.515.007,5.267-.053Z" transform="translate(0 0)" fill="#f4e297"/>
        <path id="パス_22" data-name="パス 22" d="M83.742,13.065A3.056,3.056,0,0,1,82.254,15.3c-1.044.757-2.163-.018-3.188.063-1.211.1-2.419.7-3.524-.325A2.992,2.992,0,0,1,74.59,11.7a2.962,2.962,0,0,1,2.815-1.912,4.211,4.211,0,0,1,1.69.748,2.6,2.6,0,0,1,3.322-.351,2.978,2.978,0,0,1,1.325,2.881M81.337,10.8c-.922-.25-1.559.443-1.9,1.177-.132.282-.929.139-1.019-.134-.122-.372-.3-.811-.568-.94a1.38,1.38,0,0,0-1.112.015,1.9,1.9,0,0,0-1.2,2.424c.36.877,1.4,1.682,2.365,1.145a1.764,1.764,0,0,1,1.918-.143,1.964,1.964,0,0,0,2.765-.89A1.913,1.913,0,0,0,81.337,10.8" transform="translate(-48.955 -6.408)" fill="#f4e297"/>
        <path id="パス_23" data-name="パス 23" d="M23.289,59.373a.605.605,0,0,1,.661.486.567.567,0,0,1-.6.641l-6.818-.071c-1.407-.015-2.682-.075-4.1-.034-.216.006-.322-.54-.184-.7a1.026,1.026,0,0,1,.864-.225,40.351,40.351,0,0,0,4.553-.019c1.862-.11,3.642-.07,5.617-.078" transform="translate(-8.022 -39.063)" fill="#f4e297"/>
        <path id="パス_24" data-name="パス 24" d="M51.5,51.463l-4.375.018c-.358,0-.715-.173-.72-.482,0-.268.278-.658.572-.656l4.224.026c.437,0,.577.719.3,1.094" transform="translate(-30.531 -33.123)" fill="#f4e297"/>
        <path id="パス_25" data-name="パス 25" d="M16.538,51.441l-3.91.053a.962.962,0,0,1-.685-.367c-.106-.18.254-.733.467-.736l3.6-.042a1.189,1.189,0,0,1,.608.313c.123.113.081.733-.083.78" transform="translate(-7.845 -33.126)" fill="#f4e297"/>
        <path id="パス_26" data-name="パス 26" d="M34.263,51.491l-3.1-.039c-.265,0-.414-.336-.4-.644.009-.283.361-.491.724-.485l2.92.043c.21,0,.547.422.539.616-.012.274-.37.512-.681.508" transform="translate(-20.239 -33.11)" fill="#f4e297"/>
      </g>
    </g>
  </g>
</svg>
