<svg xmlns="http://www.w3.org/2000/svg" xmlns:xlink="http://www.w3.org/1999/xlink" width="66" height="66" viewBox="0 0 66 66">
  <defs>
    <clipPath id="clip-path">
      <rect id="長方形_16" data-name="長方形 16" width="38.53" height="36.444" fill="#f4e297"/>
    </clipPath>
  </defs>
  <g id="グループ_36" data-name="グループ 36" transform="translate(-418 -2007)">
    <rect id="長方形_15" data-name="長方形 15" width="66" height="66" rx="32" transform="translate(418 2007)" fill="#394469"/>
    <g id="グループ_12" data-name="グループ 12" transform="translate(433 2022.883)">
      <g id="グループ_11" data-name="グループ 11" clip-path="url(#clip-path)">
        <path id="パス_16" data-name="パス 16" d="M42.639,8.339c0-.241-.167-.63-.3-.649-.906-.031-2.015.046-2.888-.074a17.354,17.354,0,0,0-2.591.042L8.872,7.681l-.047,5.835a.783.783,0,0,1-1.092.646L7.726,7.123c0-.551,1.771-.511,2.357-.607,1.074-.177,2.09-.38,3.141-.634L20.2,4.2,25.69,2.931,37.772.037a.893.893,0,0,1,1.177.711c.294,1.241.595,2.492.815,3.771a12.936,12.936,0,0,0,.457,2.02l2.711.058c.424.009.773.956.673,1.333a8.59,8.59,0,0,0-.016,2.433l.024,15.3a.668.668,0,0,1-.7.605l-12.423-.021c-.276-.223-.115-1.031.244-1.034a10.921,10.921,0,0,0,1.967-.04l9.929-.045ZM32.6,4.373c.34-.449,1.292-.7,1.7-.29.491.5.868,1.263,1.609,1.337a2.259,2.259,0,0,1,.981.193,2.656,2.656,0,0,1,.4.877,6.225,6.225,0,0,0,1.984-.023c-.726-2.045-.671-3.251-1.441-5.2L33.172,2.445,20.4,5.476l-2.747.565c-.122.025-.332.234-.333.322s.28.194.378.194l16.761.008c.372,0,.832.29.88-.3a2.535,2.535,0,0,1-1.522-1.125c-.182-.278-1.57-.308-1.22-.77" transform="translate(-5.093 0)" fill="#f4e297"/>
        <path id="パス_17" data-name="パス 17" d="M23.512,49.886A11.756,11.756,0,1,1,11.756,38.169,11.737,11.737,0,0,1,23.512,49.886m-1.149-.018A10.609,10.609,0,1,0,11.755,60.442,10.591,10.591,0,0,0,22.364,49.869" transform="translate(0 -25.16)" fill="#f4e297"/>
        <path id="パス_18" data-name="パス 18" d="M43.114,40.424c.844-2.357,2.676-2.1,2.671-2.583-.013-1.182-.038-2.314.054-3.455.074-.924.377-3.032-.527-3.251a3.18,3.18,0,0,1-2.378-2.98l-22.211-.006c-.177,0-.5-.129-.622-.087a.881.881,0,0,0-.389.5c-.314,1.384-1.4.724-2.77,1.711-.063.046-.289.094-.345.045a.5.5,0,0,1-.055-.419,1.522,1.522,0,0,1,1.067-.727c1.537-.246.814-1.486,1.431-2.138H43.5a.621.621,0,0,1,.586.559,2.148,2.148,0,0,0,1.439,2.332c.379.11,1.337.138,1.339.773l.027,7.788a.864.864,0,0,1-.841.831,1.616,1.616,0,0,0-1.736,1.656.706.706,0,0,1-.643.6l-7.027,0a1.191,1.191,0,0,1-.6-.3c-.138-.132-.1-.785.11-.787Z" transform="translate(-10.889 -17.821)" fill="#f4e297"/>
        <path id="パス_19" data-name="パス 19" d="M58.621,42.809c-1.07-1.287.861-1.481-.526-4.48a4.185,4.185,0,0,0-5.361-2.015.7.7,0,0,1-.58-.261c-.176-.615,3.961-2.158,6.406.986a4.588,4.588,0,0,1,.061,5.77" transform="translate(-34.375 -23.156)" fill="#f4e297"/>
        <path id="パス_20" data-name="パス 20" d="M26.451,64.374l-.066,2.736a1.057,1.057,0,0,1-1.279-.022l.055-2.311c0-.159-.406-.416-.574-.418L22.1,64.322c-.251-.115-.2-.863.035-1.058L25,63.295a1.833,1.833,0,0,0,.067-1.4c-.16-.289-2.305-.15-2.7-.126a.608.608,0,0,1-.43-.322c-.064-.152.035-.673.194-.68l2.4-.1c-.028-.431-.33-.6-.534-.894l-1.829-2.65c-.343-.5-.643-1.025-.972-1.61a1.059,1.059,0,0,1,1.63.278l2.517,3.772a.848.848,0,0,0,.452.315c.127,0,.259-.255.357-.4l2.47-3.681c.294-.438.958-.683,1.312-.429.161.115.1.594-.018.77l-2.689,4c-.082.122-.18.281-.228.368s.322.216.423.216l1.872.005a2.818,2.818,0,0,1-.01,1.1L26.6,61.8a1.376,1.376,0,0,0,0,1.478l1.887.024a2.156,2.156,0,0,1,.811.057.8.8,0,0,1,.132.849c-.307.5-1.747-.032-2.98.169" transform="translate(-13.971 -36.413)" fill="#f4e297"/>
      </g>
    </g>
  </g>
</svg>
