<svg xmlns="http://www.w3.org/2000/svg" xmlns:xlink="http://www.w3.org/1999/xlink" width="66" height="66" viewBox="0 0 66 66">
  <defs>
    <clipPath id="clip-path">
      <rect id="長方形_14" data-name="長方形 14" width="29.273" height="36.234" fill="#f4e297"/>
    </clipPath>
  </defs>
  <g id="グループ_35" data-name="グループ 35" transform="translate(-112 -2007)">
    <rect id="長方形_13" data-name="長方形 13" width="66" height="66" rx="32" transform="translate(112 2007)" fill="#394469"/>
    <g id="グループ_10" data-name="グループ 10" transform="translate(135 2022.883)">
      <g id="グループ_9" data-name="グループ 9" clip-path="url(#clip-path)">
        <path id="パス_12" data-name="パス 12" d="M1.347,29.516l17.8,0a2.434,2.434,0,0,0,.08-.976l-.024-7.029a.732.732,0,0,1,.507-.557.646.646,0,0,1,.611.569l-.04,12.262a2.789,2.789,0,0,1-2.78,2.452l-15.024,0A2.818,2.818,0,0,1,0,33.628L0,2.536C0,1.488,1.023.056,2.082.052L18.222,0A2.984,2.984,0,0,1,20.3,2.623l.015,2.763a.675.675,0,0,1-.6.514c-.794-.163-.436-1.544-.533-3.227-.035-.6-.753-1.67-1.4-1.671L2.378.966A2.443,2.443,0,0,0,.952,2.822V28.8a1.042,1.042,0,0,0,.4.72m17.846,4.171.061-1.387a3.282,3.282,0,0,0-.157-1.824l-18.059.008a12.085,12.085,0,0,0,.005,3.1c.083.594.707,1.559,1.435,1.562l14.622.063c.912,0,2.039-.307,2.092-1.52" fill="#f4e297"/>
        <path id="パス_13" data-name="パス 13" d="M31.514,33.238a3.259,3.259,0,0,1-3.108-3.031,3.307,3.307,0,0,1,2.522-3.581,2.859,2.859,0,0,1,2.617-2.542l.974-.118a5.146,5.146,0,0,1,5.865-2.55,5.473,5.473,0,0,1,4.153,4.151,3.894,3.894,0,0,1,3.557,3.666,3.758,3.758,0,0,1-3.433,4.038Zm-.1-.928,13.175-.079a2.8,2.8,0,0,0-.32-5.585c-.2,0-.594-.07-.668-.22a5.008,5.008,0,0,0-2.381-3.6A4.12,4.12,0,0,0,35.194,25.1a10.878,10.878,0,0,1-1.123-.135,2.126,2.126,0,0,0-2.145,1.32l-.331,1.143a2.237,2.237,0,0,0-2.1,1.546c-.71,1.934,1.337,3.339,1.929,3.336" transform="translate(-18.836 -14.104)" fill="#f4e297"/>
        <path id="パス_14" data-name="パス 14" d="M25.58,8.413a23.335,23.335,0,0,0-3.7-.009c-.437.035-.995.072-1.224-.382-.078-.155.191-.642.373-.642l5.314.015c.206.026.274.687.139.822a1.21,1.21,0,0,1-.9.2" transform="translate(-13.701 -4.898)" fill="#f4e297"/>
        <path id="パス_15" data-name="パス 15" d="M27.964,97.092a8.2,8.2,0,0,1-2.173.006,1.96,1.96,0,0,1-.97-.144c-.223-.141-.17-.961.1-.973a29.18,29.18,0,0,1,3.07.007c.354.02.426,1-.024,1.1" transform="translate(-16.38 -63.673)" fill="#f4e297"/>
      </g>
    </g>
  </g>
</svg>
