<svg xmlns="http://www.w3.org/2000/svg" xmlns:xlink="http://www.w3.org/1999/xlink" width="66" height="66" viewBox="0 0 66 66">
  <defs>
    <clipPath id="clip-path">
      <rect id="長方形_20" data-name="長方形 20" width="25.062" height="39.696" fill="#f4e297"/>
    </clipPath>
  </defs>
  <g id="グループ_38" data-name="グループ 38" transform="translate(-1026 -2007)">
    <rect id="長方形_19" data-name="長方形 19" width="66" height="66" rx="32" transform="translate(1026 2007)" fill="#394469"/>
    <g id="グループ_16" data-name="グループ 16" transform="translate(1046 2020)">
      <g id="グループ_15" data-name="グループ 15" clip-path="url(#clip-path)">
        <path id="パス_27" data-name="パス 27" d="M13.623,33.511l-2.362.012c-.226.22-.035.75-.033,1.039l.023,4.392a.905.905,0,0,1-.663.673c-1.445-.017-.08-4.877-.629-5.965-.524-.207-1.2-.368-1.468-.772-1.028-1.567.709-3.163-.9-4a10.4,10.4,0,0,1-5.584-8.576c-.116-1.512-.063-2.925-.08-4.507L.772,15.451a1.217,1.217,0,0,1-.756-.959A15.049,15.049,0,0,1,.094,11.9c.162-.9,1.258-1.111,1.962-1.117l2.971-.028.035-9.253C5.065.58,6.171,0,6.876,0A1.893,1.893,0,0,1,8.744,1.638l0,9.154h7.544v-9.3A1.966,1.966,0,0,1,18.156.029c.685,0,1.8.627,1.8,1.5L20,10.9l3.488.093c1.9.051,1.815,3.376,1.109,4.151a2.522,2.522,0,0,1-1.765.682l-.1,5.864a7.97,7.97,0,0,1-1.342,3.639,10.658,10.658,0,0,1-4.64,4.051L16.7,32.309c-.015.915-.867,1.4-1.873,1.156l-.05,5.745c0,.2-.465.5-.658.485a.75.75,0,0,1-.5-.568ZM7.615,10.787,7.571,9.9,7.559,2.087c0-.423-.182-1.062-.735-.972A1.154,1.154,0,0,0,6.1,2.35a4.376,4.376,0,0,1-.014,2.117l-.005,6.3Zm9.793-.2c.1.492,1.4.51,1.5.02l.016-8.594a1.02,1.02,0,0,0-.661-.816.9.9,0,0,0-.865.542,3.562,3.562,0,0,0,.025,1.283A47.766,47.766,0,0,1,17.412,7.8a10.641,10.641,0,0,0,0,2.788M20.956,14.7c.886.035,1.962.33,2.666-.288a1.932,1.932,0,0,0,.1-2.163,2.184,2.184,0,0,0-.941-.278l-21.379,0c-.51.023-.459,2.411-.11,2.644l18.227.024ZM15.128,32.488c.218.006.569-.375.569-.585l0-3.083a6.18,6.18,0,0,1,1.156-.795,8.819,8.819,0,0,0,4.854-7.689l.058-4.1a.7.7,0,0,0-.614-.575l-17.852,0a1.483,1.483,0,0,0-.087.777l.114,4.96A7.032,7.032,0,0,0,6.518,26.84l2.8,1.8.036,3.627,2.435.134Z" transform="translate(0 0.001)" fill="#f4e297"/>
      </g>
    </g>
  </g>
</svg>
